<svg width="201" height="56" viewBox="0 0 201 56" xmlns="http://www.w3.org/2000/svg">
    <g fill="none" fill-rule="evenodd">
        <path d="M76.14 26.526v9.543c-1.528.52-3.056.694-4.584.694-6.282 0-10.186-3.643-10.186-9.542 0-5.9 3.904-9.543 10.356-9.543 2.037 0 4.244.173 6.111 1.04l.68.348 1.357-3.644-.679-.347c-2.207-.868-4.753-1.388-7.13-1.388-10.695 0-15.618 6.94-15.618 13.534-.17 3.643 1.358 7.113 3.904 9.542 2.547 2.603 6.112 3.991 10.695 3.991 3.056 0 6.282-.52 9.168-1.735h.34V26.526h-4.415z" fill="#54565B"/>
        <path fill="#54565B" fill-rule="nonzero" d="M93.285 14.207h-4.584v26.374h4.584z"/>
        <path fill="#54565B" d="M106.528 36.416V14.207h-4.584v26.374h16.468v-4.165zM128.598 36.416v-7.98h11.374v-3.818h-11.374v-6.593h12.223v-3.818h-16.637v26.374h17.146v-4.165zM158.203 19.413c.337.694 2.525 7.287 3.199 9.196h-6.903s3.368-8.502 3.704-9.196zm2.357-5.206h-4.546l-9.762 26.374h4.544l2.862-7.808h9.09l2.862 7.808h4.881l-9.931-26.374zM196.845 17.33c-2.717-2.255-6.961-3.643-12.224-3.643h-8.488v3.99h8.488c3.905 0 6.96 1.042 8.828 2.603 1.528 1.735 2.377 3.99 2.377 6.246.17 2.603-.85 5.38-2.716 7.288-2.037 1.908-5.263 2.95-9.168 2.95h-3.225V24.617h-4.584v15.79h.34c2.376.346 4.583.346 6.96.346 5.602 0 10.186-1.735 13.242-4.338 2.716-2.602 4.074-6.246 3.904-9.89 0-3.47-1.358-6.766-3.734-9.195z"/>
        <path d="M41.847.5h-.34C7.216 3.797 2.972 27.047 14.176 34.681c-2.037 8.502 0 8.502 0 8.502.17-2.603.68-5.032 1.358-7.634C19.778 18.719 30.643 4.317 41.508.674c.226.115.34.057.34-.174z" fill="#C5203F"/>
        <path d="M39.64 6.397V6.05l-.34.347c-2.546 5.553-3.735 13.534-5.602 19.433-2.547 6.94-6.96 11.799-13.751 11.105v17.003S1.78 45.784 1.78 32.597V7.959l14.77-1.388c.227 0 .34-.116.34-.347H.593v26.2C.593 47.344 19.947 55.5 19.947 55.5S39.64 46.998 39.64 32.597v-26.2z" fill="#C5203F"/>
    </g>
</svg>
