<svg width="142" height="70" viewBox="0 0 142 70" xmlns="http://www.w3.org/2000/svg" xmlns:xlink="http://www.w3.org/1999/xlink">
    <defs>
        <path d="M0 0h142v70H0V0z" id="jhpp6z08ra"/>
    </defs>
    <g fill="none" xlink:href="#jhpp6z08ra">
        <g fill-rule="evenodd" fill="#084E70">
            <path d="M0 49.136c0-3.264 1.131-6.301 2.8-8.289h1.3c-1.724 2.385-2.658 5.11-2.658 8.26 0 3.152.905 5.877 2.659 8.29H2.8C1.13 55.41 0 52.372 0 49.137zM5.147 40.847h1.358v13.115H5.147z"/>
            <path d="M7.806 49.023c0-3.265 1.244-5.138 3.28-5.138 2.036 0 3.196 1.703 3.196 4.939v.199H9.163c0 2.725.735 4.059 1.923 4.059 1.188 0 1.669-.908 1.895-2.782h1.244c-.254 2.526-1.385 3.889-3.139 3.889-1.753 0-3.252-1.788-3.252-5.138l-.028-.028zm1.385-.994h3.762c-.198-2.044-.877-3.066-1.867-3.066s-1.725 1.022-1.895 3.066z" fill-rule="nonzero"/>
            <path d="M15.555 44.055h1.357v.994a2.623 2.623 0 0 1 2.178-1.136c1.499 0 2.517.994 2.517 2.555v7.494h-1.358v-7.267c0-1.079-.594-1.703-1.555-1.703-.962 0-1.386.397-1.754 1.022v7.948h-1.357v-9.907h-.028z"/>
            <path d="M22.851 51.691c0-1.618 1.273-2.441 2.715-3.264 1.188-.682 1.867-1.306 1.867-2.073 0-.766-.566-1.362-1.443-1.362-.876 0-1.612.795-1.725 2.242h-1.272c.141-2.072 1.3-3.32 3.054-3.32 1.753 0 2.715.964 2.715 2.696v7.38h-1.33v-1.022c-.508.682-1.3 1.136-2.205 1.136-1.442 0-2.376-.965-2.376-2.385v-.028zm2.744 1.334c.735 0 1.442-.397 1.838-1.022v-3.86c-.283.397-.736.738-1.301 1.078-1.075.682-1.98 1.278-1.98 2.413 0 1.136.622 1.391 1.414 1.391h.029z" fill-rule="nonzero"/>
            <path d="M30.035 49.023c0-3.378 1.244-5.138 3.252-5.138s2.913 1.334 3.14 4.059h-1.302c-.141-2.015-.848-2.952-1.838-2.952-.99 0-1.923 1.306-1.923 4.002 0 2.697.735 4.031 1.923 4.031 1.188 0 1.697-.965 1.838-3.037h1.301c-.198 2.782-1.386 4.173-3.139 4.173s-3.252-1.732-3.252-5.138z"/>
            <path d="M37.331 51.691c0-1.618 1.273-2.441 2.715-3.264 1.188-.682 1.867-1.306 1.867-2.073 0-.766-.566-1.362-1.443-1.362-.876 0-1.612.795-1.725 2.242h-1.272c.141-2.072 1.3-3.32 3.054-3.32 1.753 0 2.715.964 2.715 2.696v7.38h-1.33v-1.022c-.508.682-1.3 1.136-2.205 1.136-1.443 0-2.376-.965-2.376-2.385v-.028zm2.743 1.334c.736 0 1.443-.397 1.839-1.022v-3.86c-.283.397-.736.738-1.301 1.078-1.075.682-1.98 1.278-1.98 2.413 0 1.136.622 1.391 1.414 1.391h.028zM44.713 44.055h1.357v1.618c.48-1.135 1.301-1.731 2.29-1.731 1.81 0 3.055 1.731 3.055 5.08 0 3.35-1.244 5.139-3.054 5.139-1.81 0-1.81-.597-2.29-1.76v5.024h-1.358v-13.37zm5.316 4.968c0-2.725-.735-4.003-1.95-4.003-1.217 0-2.009 1.306-2.009 4.003 0 2.696.764 4.002 2.008 4.002s1.951-1.306 1.951-4.002zM52.377 51.691c0-1.618 1.272-2.441 2.715-3.264 1.188-.682 1.866-1.306 1.866-2.073 0-.766-.565-1.362-1.442-1.362s-1.612.795-1.725 2.242h-1.273c.142-2.072 1.301-3.32 3.055-3.32 1.753 0 2.715.964 2.715 2.696v7.38h-1.33v-1.022c-.509.682-1.3 1.136-2.206 1.136-1.442 0-2.375-.965-2.375-2.385v-.028zm2.743 1.334c.735 0 1.442-.397 1.838-1.022v-3.86c-.282.397-.735.738-1.3 1.078-1.075.682-1.98 1.278-1.98 2.413 0 1.136.622 1.391 1.414 1.391h.028z" fill-rule="nonzero"/>
            <path d="M58.966 44.055h1.358l1.018 4.201.99 4.201 1.018-4.2 1.018-4.202h1.33l-2.546 9.907h-1.669l-2.517-9.907z"/>
            <path d="M66.659 41.5H68.1v1.675H66.66V41.5zm.056 2.555h1.358v9.907h-1.358v-9.907z" fill-rule="nonzero"/>
            <path d="M69.572 44.055h1.357v1.277c.453-.88 1.245-1.39 2.121-1.39h.227v1.362a2.467 2.467 0 0 0-.453-.057 2.1 2.1 0 0 0-1.895 1.136v7.579h-1.357v-9.907z"/>
            <path d="M77.264 49.108c0 3.264-1.131 6.302-2.8 8.289h-1.3c1.725-2.385 2.658-5.11 2.658-8.26 0-3.152-.905-5.877-2.658-8.29h1.3c1.669 1.988 2.8 5.025 2.8 8.26z"/>
            <path d="M80.375 41.5h1.443v1.675h-1.443V41.5zm.029 2.555h1.357v9.907h-1.357v-9.907z" fill-rule="nonzero"/>
            <path d="M83.26 44.055h1.357v.994a2.623 2.623 0 0 1 2.178-1.136c1.499 0 2.517.994 2.517 2.555v7.494h-1.357v-7.267c0-1.079-.594-1.703-1.556-1.703-.961 0-1.386.397-1.753 1.022v7.948h-1.358v-9.907h-.028z"/>
            <path d="M89.651 56.375h.425c.48 0 .678-.17.678-.682V44.055h1.358V55.78c0 1.05-.566 1.618-1.612 1.618h-.849v-1.022zM90.726 41.5h1.442v1.675h-1.442V41.5zM93.441 49.023c0-3.265 1.245-5.138 3.28-5.138 2.037 0 3.197 1.703 3.197 4.939v.199h-5.12c0 2.725.736 4.059 1.924 4.059s1.668-.908 1.895-2.782h1.244c-.255 2.526-1.386 3.889-3.14 3.889-1.753 0-3.252-1.788-3.252-5.138l-.028-.028zm1.386-.994h3.761c-.198-2.044-.876-3.066-1.866-3.066-.99 0-1.725 1.022-1.895 3.066z" fill-rule="nonzero"/>
            <path d="M100.794 49.023c0-3.378 1.245-5.138 3.253-5.138s2.913 1.334 3.139 4.059h-1.301c-.142-2.015-.849-2.952-1.838-2.952-.99 0-1.924 1.306-1.924 4.002 0 2.697.736 4.031 1.924 4.031 1.187 0 1.696-.965 1.838-3.037h1.3c-.197 2.782-1.385 4.173-3.138 4.173-1.754 0-3.253-1.732-3.253-5.138zM108.996 52.344V45.19h-1.612v-1.136h1.612v-1.873h1.357v1.873h1.952v1.136h-1.952v6.869c0 .568.255.795.849.795h1.103v1.107h-1.669c-1.103 0-1.64-.596-1.64-1.618z"/>
            <path d="M113.464 41.5h1.443v1.675h-1.443V41.5zm.029 2.555h1.357v9.907h-1.357v-9.907zM116.18 49.023c0-3.435 1.328-5.138 3.308-5.138 1.98 0 3.337 1.731 3.337 5.138 0 3.406-1.329 5.138-3.337 5.138s-3.309-1.732-3.309-5.138zm5.288 0c0-2.782-.792-4.031-1.98-4.031s-1.951 1.249-1.951 4.002c0 2.754.792 4.031 1.951 4.031 1.16 0 1.98-1.249 1.98-4.002z" fill-rule="nonzero"/>
            <path d="M123.843 44.055h1.358v.994a2.623 2.623 0 0 1 2.178-1.136c1.499 0 2.517.994 2.517 2.555v7.494h-1.358v-7.267c0-1.079-.594-1.703-1.555-1.703-.962 0-1.386.397-1.754 1.022v7.948h-1.357v-9.907h-.029z"/>
        </g>
        <g fill-rule="evenodd" fill="#084E70">
            <path d="M5.91 66.168H2.999v-.653l2.743-5.393h.962v5.393h.763v.681h-.763V67.9H5.91v-1.731zm0-.653v-4.4l-2.149 4.4h2.15zM7.862 64.238c0-2.782.764-4.23 2.178-4.23s1.725.738 1.951 2.328H11.2c-.17-1.164-.537-1.647-1.16-1.647-.932 0-1.413 1.079-1.413 3.492.198-.823.792-1.306 1.555-1.306 1.131 0 1.867.965 1.867 2.47 0 1.504-.764 2.611-2.008 2.611-1.245 0-2.15-1.078-2.15-3.718h-.028zm3.366 1.163c0-1.249-.481-1.873-1.216-1.873-.736 0-1.245.766-1.245 1.873s.51 1.902 1.245 1.902c.735 0 1.216-.766 1.216-1.902z" fill-rule="nonzero"/>
            <path d="M12.529 65.26h.791c.085 1.39.566 2.015 1.33 2.015.763 0 1.16-.568 1.16-1.561 0-.994-.51-1.59-1.33-1.59h-.566v-.71h.566c.764 0 1.216-.51 1.216-1.39 0-.88-.424-1.335-1.075-1.335-.65 0-1.13.54-1.244 1.675h-.764c.085-1.448.792-2.356 2.037-2.356 1.244 0 1.866.767 1.866 1.987 0 1.22-.396 1.505-1.046 1.76.763.256 1.188.965 1.188 1.987 0 1.022-.792 2.214-1.952 2.214s-2.064-.908-2.15-2.725l-.027.029zM17.223 66.85h.905v1.021h-.905zM18.637 65.43h.792c.057 1.249.453 1.873 1.216 1.873.764 0 1.188-.71 1.188-1.958 0-1.25-.452-1.959-1.188-1.959-.735 0-.933.369-1.188 1.05h-.735l.453-4.314h3.167v.71h-2.545l-.255 2.526c.311-.455.736-.682 1.273-.682 1.046 0 1.81.909 1.81 2.584 0 1.674-.764 2.696-1.98 2.696s-1.895-.851-2.008-2.555v.029zM24.746 62.024h.792v.596c.283-.426.707-.682 1.244-.682.538 0 .99.284 1.216.738.255-.454.764-.738 1.33-.738.848 0 1.442.596 1.442 1.505v4.428h-.792v-4.343c0-.596-.34-.965-.877-.965-.537 0-.763.227-.961.54v4.768h-.792v-4.343c0-.596-.34-.965-.849-.965-.509 0-.763.227-.961.596v4.712h-.792v-5.847z"/>
            <path d="M31.703 64.919c0-1.959.736-2.98 1.782-2.98s1.075.34 1.357 1.021v-.965h.792v5.933c0 1.39-.763 2.072-1.895 2.072-1.13 0-1.753-.568-1.894-1.646h.763c.113.71.51 1.05 1.131 1.05.623 0 1.103-.454 1.103-1.334v-1.164c-.282.653-.763.993-1.357.993-1.075 0-1.782-1.021-1.782-3.009v.029zm3.14 0c0-1.59-.453-2.356-1.16-2.356-.707 0-1.16.766-1.16 2.356 0 1.59.453 2.356 1.16 2.356.707 0 1.16-.767 1.16-2.356z" fill-rule="nonzero"/>
            <path d="M38.972 59.582h.735l-2.97 10.333h-.735zM41.177 61.37h-.961v-.539c.65 0 1.046-.255 1.216-.71h.537v7.75h-.82v-6.5h.028zM42.987 66.85h.905v1.021h-.905zM44.515 65.43h.792c.056 1.249.452 1.873 1.216 1.873.763 0 1.187-.71 1.187-1.958 0-1.25-.452-1.959-1.187-1.959-.736 0-.934.369-1.188 1.05h-.736l.453-4.314h3.167v.71h-2.545l-.254 2.526c.31-.455.735-.682 1.272-.682 1.047 0 1.81.909 1.81 2.584 0 1.674-.763 2.696-1.98 2.696-1.215 0-1.894-.851-2.007-2.555v.029zM50.623 62.024h.792v.596c.283-.426.707-.682 1.245-.682.537 0 .99.284 1.216.738.254-.454.763-.738 1.329-.738.848 0 1.442.596 1.442 1.505v4.428h-.792v-4.343c0-.596-.339-.965-.876-.965-.538 0-.764.227-.962.54v4.768h-.792v-4.343c0-.596-.34-.965-.848-.965-.51 0-.764.227-.962.596v4.712h-.792v-5.847zM57.694 60.122h.848v7.011H61.4v.738h-3.677v-7.75z"/>
        </g>
        <g fill-rule="evenodd" fill="#084E70">
            <path d="M.283 11.95h5.373l4.554 13.597 4.44-13.597h5.232L13.15 30.373l-1.216 3.321c-.453 1.107-.877 1.959-1.273 2.555-.396.596-.848 1.079-1.386 1.42-.509.368-1.16.652-1.923.85-.763.2-1.612.313-2.573.313-.962 0-1.924-.113-2.857-.312l-.452-3.974c.791.142 1.499.227 2.149.227 1.16 0 2.036-.34 2.602-1.022.565-.681.99-1.561 1.3-2.64L.283 11.922v.028z"/>
            <path d="m31.76 25.008 5.034.852c-.65 1.845-1.669 3.264-3.055 4.23-1.385.964-3.139 1.447-5.232 1.447-3.308 0-5.769-1.079-7.353-3.265-1.244-1.731-1.895-3.945-1.895-6.585s.82-5.649 2.49-7.437c1.64-1.789 3.732-2.697 6.278-2.697 2.545 0 5.062.937 6.702 2.81 1.64 1.874 2.433 4.77 2.348 8.63H24.435c.028 1.504.452 2.668 1.216 3.491.792.823 1.753 1.25 2.913 1.25s1.442-.228 1.98-.654c.537-.426.933-1.135 1.216-2.1v.028zm.283-5.138c-.029-1.476-.425-2.583-1.132-3.35-.707-.766-1.583-1.135-2.63-1.135-1.046 0-2.008.398-2.715 1.22-.707.796-1.074 1.903-1.046 3.294h7.55l-.027-.029z" fill-rule="nonzero"/>
            <path d="M38.406 31.083v-3.946l7.155-8.232c1.16-1.334 2.036-2.3 2.602-2.867-.594.028-1.358.057-2.32.085h-6.73V11.95h15.753v3.577l-7.297 8.43-2.574 2.783c1.414-.086 2.263-.114 2.602-.114h7.806v4.457H38.378h.028zM67.564 11.95v4.031h-3.45v7.721c0 1.562.028 2.47.084 2.725.057.256.227.483.453.653.226.17.509.256.848.256.34 0 1.132-.17 2.037-.483l.424 3.917c-1.16.511-2.489.767-3.988.767s-1.725-.142-2.46-.454c-.736-.313-1.273-.71-1.612-1.193-.34-.482-.566-1.135-.707-1.987-.114-.596-.17-1.788-.17-3.576V15.98h-2.32v-4.03h2.32V8.146l5.062-2.952v6.755h3.479zM82.129 31.083v-2.867a7.529 7.529 0 0 1-2.744 2.413 7.555 7.555 0 0 1-3.591.88c-1.273 0-2.433-.284-3.45-.852-1.019-.568-1.754-1.363-2.207-2.385-.452-1.021-.678-2.44-.678-4.23v-12.12h5.034v8.8c0 2.696.085 4.343.283 4.939.197.596.509 1.079 1.018 1.448.48.34 1.103.539 1.866.539.764 0 1.64-.227 2.32-.71.678-.482 1.159-1.05 1.413-1.76.255-.71.368-2.412.368-5.166V11.95h5.034v19.133H82.1h.029z"/>
            <path d="m89.199 32.36 5.77.71c.084.681.31 1.135.65 1.39.48.37 1.244.54 2.262.54s2.291-.199 2.97-.596c.452-.256.792-.681 1.018-1.278.141-.425.226-1.192.226-2.327v-2.782c-1.499 2.072-3.422 3.094-5.713 3.094-2.29 0-4.581-1.079-6.08-3.264-1.16-1.732-1.754-3.86-1.754-6.416 0-2.554.764-5.648 2.32-7.352 1.555-1.703 3.45-2.554 5.74-2.554 2.291 0 4.3 1.05 5.827 3.122V11.95h4.723v17.174c0 2.27-.198 3.946-.566 5.053-.368 1.107-.905 1.987-1.556 2.64-.678.624-1.555 1.135-2.686 1.504-1.132.37-2.546.54-4.242.54-3.225 0-5.515-.568-6.873-1.675-1.357-1.107-2.036-2.527-2.036-4.23v-.624.028zm4.497-11.24c0 2.043.396 3.519 1.187 4.456.792.937 1.754 1.42 2.913 1.42 1.16 0 2.263-.483 3.111-1.449.849-.965 1.273-2.412 1.273-4.286 0-1.873-.396-3.463-1.216-4.428-.82-.965-1.838-1.448-3.083-1.448-1.244 0-2.206.483-2.998 1.42-.791.936-1.187 2.384-1.187 4.314zM108.741 21.261c0-1.675.424-3.321 1.245-4.882.82-1.562 2.008-2.782 3.507-3.605 1.498-.824 3.195-1.25 5.062-1.25 2.885 0 5.26.937 7.098 2.81 1.839 1.874 2.772 4.259 2.772 7.126s-.933 5.308-2.8 7.21c-1.866 1.902-4.214 2.867-7.042 2.867-2.828 0-3.422-.398-5.006-1.192-1.583-.795-2.8-1.959-3.62-3.492-.82-1.533-1.244-3.406-1.244-5.592h.028zm5.176.256c0 1.901.452 3.35 1.357 4.371.905 1.022 2.008 1.504 3.31 1.504 1.3 0 2.431-.51 3.308-1.504.877-.993 1.33-2.47 1.33-4.4 0-1.93-.453-3.321-1.33-4.314-.877-.994-2.008-1.505-3.309-1.505-1.3 0-2.432.511-3.309 1.505-.876.993-1.357 2.47-1.357 4.371v-.028z" fill-rule="nonzero"/>
        </g>
        <path d="M136.825 27.165c.395 0 .763.114 1.13.313.368.198.651.482.878.851.197.37.31.767.31 1.164 0 .398-.113.795-.31 1.164-.198.369-.481.653-.849.852a2.366 2.366 0 0 1-1.16.312c-.424 0-.791-.114-1.159-.312a2.049 2.049 0 0 1-.848-.852 2.388 2.388 0 0 1-.312-1.164c0-.426.114-.795.312-1.164.198-.369.509-.653.876-.851.368-.199.736-.313 1.132-.313zm0 .398c-.312 0-.65.085-.934.255-.31.17-.537.398-.707.71a1.97 1.97 0 0 0-.254.965c0 .34.085.653.254.965.17.312.396.54.707.71.311.17.622.255.962.255.34 0 .65-.085.961-.255.311-.17.538-.398.707-.71a1.97 1.97 0 0 0 .255-.965c0-.34-.085-.653-.255-.965a1.888 1.888 0 0 0-.707-.71 1.928 1.928 0 0 0-.933-.255h-.056zm-1.019 3.207v-2.497h.849c.283 0 .509 0 .622.056a.639.639 0 0 1 .311.227.572.572 0 0 1 .113.37c0 .141-.056.34-.198.482-.141.142-.31.199-.509.227.085.028.17.085.198.142.113.085.226.255.368.483l.31.482h-.48l-.226-.397c-.17-.313-.311-.511-.424-.568a.507.507 0 0 0-.311-.085h-.227v1.05h-.396v.028zm.396-1.419h.481c.226 0 .396-.028.48-.113.086-.057.114-.17.114-.284 0-.114 0-.142-.057-.199a.29.29 0 0 0-.17-.142 1.167 1.167 0 0 0-.395-.057h-.453v.795z" fill="#084E70"/>
        <g fill-rule="evenodd">
            <path d="M135.835 16.975c0-3.406-1.103-6.188-3.28-8.43-2.179-2.215-4.978-3.322-8.372-3.322s-4.214.483-5.996 1.476a9.935 9.935 0 0 0-3.139 2.697c1.612-.738 3.365-1.107 5.26-1.107 3.422 0 6.194 1.107 8.372 3.32 2.177 2.215 3.28 5.025 3.28 8.432 0 3.406-.877 5.62-2.602 7.749a10.295 10.295 0 0 0 3.168-2.3c2.206-2.242 3.309-5.08 3.309-8.515z" fill="#F2685F"/>
            <path d="M142 12.972c0-3.747-1.216-6.84-3.592-9.282C136.004 1.25 132.922 0 129.16 0c-3.761 0-4.638.54-6.617 1.618-1.386.766-2.518 1.76-3.48 2.98 1.754-.823 3.706-1.22 5.827-1.22 3.761 0 6.844 1.22 9.248 3.69 2.404 2.441 3.592 5.535 3.592 9.282s-.962 6.217-2.885 8.545c1.3-.597 2.46-1.448 3.507-2.527 2.432-2.47 3.648-5.62 3.648-9.396z" fill="#0EA5AA"/>
        </g>
    </g>
</svg>
